<svg width="508" height="392" viewBox="0 0 508 392" fill="none" xmlns="http://www.w3.org/2000/svg">
<g clip-path="url(#clip0)">
<path d="M354.684 235.893H353.553C353.553 176.983 309.887 129.056 256.215 129.056C202.544 129.056 158.878 176.983 158.878 235.893H157.747C157.747 176.298 201.92 127.814 256.215 127.814C310.512 127.814 354.684 176.298 354.684 235.893Z" fill="#A79CA3"/>
<path d="M264.704 219.268H229.618V220.511H235.089V232.312H236.221V220.511H257.534V232.312H258.666V220.511H264.704V219.268Z" fill="#A79CA3"/>
<path d="M277.72 188.832H268.665V198.77H272.863V232.257H273.995V198.77H277.72V188.832Z" fill="#A79CA3"/>
<path d="M264.773 215.551H229.687V216.794H264.773V215.551Z" fill="#A79CA3"/>
<path d="M264.773 212.445H229.687V213.688H264.773V212.445Z" fill="#A79CA3"/>
<path d="M264.773 209.34H229.687V210.582H264.773V209.34Z" fill="#A79CA3"/>
<path d="M86 203.368C133.496 203.368 172 165.32 172 118.386C172 71.4513 133.496 33.4033 86 33.4033C38.5035 33.4033 0 71.4513 0 118.386C0 165.32 38.5035 203.368 86 203.368Z" fill="#FF1AB3" fill-opacity="0.6"/>
<path opacity="0.2" d="M150.221 70.7368C158.238 87.9851 159.326 107.293 153.289 125.211C147.253 143.129 134.485 158.489 117.269 168.546C100.052 178.604 79.5084 182.703 59.308 180.112C39.1077 177.52 20.5673 168.408 7 154.401C11.8976 164.939 19.2277 174.372 28.4826 182.046C37.7374 189.72 48.6956 195.451 60.598 198.843C72.5004 202.236 85.0624 203.207 97.4136 201.691C109.765 200.175 121.61 196.207 132.128 190.062C142.647 183.918 151.587 175.744 158.329 166.106C165.072 156.468 169.455 145.598 171.176 134.247C172.897 122.897 171.914 111.338 168.296 100.372C164.678 89.4052 158.51 79.2934 150.221 70.7368V70.7368Z" fill="black"/>
<path d="M92.781 101.557H93.035L97.6106 389.487H87.9514L92.781 101.557Z" fill="#A79CA3"/>
<path d="M109.628 258.39L107.497 253.946L92.202 262.785L94.3335 267.228L109.628 258.39Z" fill="#A79CA3"/>
<path d="M437 226.947C476.212 226.947 508 198.796 508 164.07C508 129.344 476.212 101.193 437 101.193C397.788 101.193 366 129.344 366 164.07C366 198.796 397.788 226.947 437 226.947Z" fill="#FF1AB3" fill-opacity="0.6"/>
<path opacity="0.2" d="M491.818 89.7417C498.804 107.676 499.751 127.753 494.492 146.384C489.232 165.015 478.108 180.987 463.108 191.444C448.107 201.902 430.207 206.164 412.607 203.47C395.007 200.776 378.853 191.3 367.032 176.737C371.299 187.694 377.686 197.502 385.749 205.481C393.813 213.461 403.361 219.42 413.731 222.947C424.102 226.475 435.047 227.485 445.808 225.908C456.57 224.332 466.89 220.206 476.055 213.817C485.219 207.428 493.009 198.928 498.883 188.907C504.758 178.886 508.577 167.583 510.077 155.78C511.576 143.978 510.72 131.959 507.567 120.556C504.414 109.153 499.041 98.6389 491.818 89.7417V89.7417Z" fill="black"/>
<path d="M433.317 144.643H433.523L437.226 377.685H429.408L433.317 144.643Z" fill="#A79CA3"/>
<path d="M446.953 271.579L445.228 267.982L432.849 275.136L434.574 278.733L446.953 271.579Z" fill="#A79CA3"/>
<path d="M212.122 215.423C218.633 215.423 223.912 209.63 223.912 202.484C223.912 195.337 218.633 189.544 212.122 189.544C205.611 189.544 200.333 195.337 200.333 202.484C200.333 209.63 205.611 215.423 212.122 215.423Z" fill="#FF1AB3" fill-opacity="0.6"/>
<path opacity="0.2" d="M220.892 193.841C221.992 196.665 222.141 199.825 221.313 202.758C220.485 205.691 218.734 208.205 216.372 209.852C214.011 211.498 211.193 212.169 208.422 211.745C205.652 211.321 203.109 209.829 201.248 207.536C201.919 209.261 202.925 210.805 204.194 212.061C205.464 213.318 206.967 214.256 208.599 214.811C210.232 215.366 211.955 215.525 213.649 215.277C215.343 215.029 216.968 214.379 218.41 213.374C219.853 212.368 221.079 211.03 222.004 209.452C222.929 207.875 223.53 206.095 223.766 204.237C224.002 202.379 223.868 200.487 223.371 198.692C222.875 196.897 222.029 195.242 220.892 193.841V193.841Z" fill="black"/>
<path d="M212.155 202.484H212.187L212.77 239.17H211.54L212.155 202.484Z" fill="#A79CA3"/>
<path d="M214.301 222.467L214.03 221.9L212.081 223.027L212.353 223.593L214.301 222.467Z" fill="#A79CA3"/>
<path opacity="0.2" d="M343.511 138.652C346.327 145.88 346.709 153.972 344.589 161.48C342.469 168.989 337.986 175.426 331.941 179.64C325.895 183.855 318.681 185.573 311.588 184.487C304.495 183.401 297.984 179.582 293.22 173.713C294.94 178.129 297.514 182.082 300.764 185.298C304.014 188.513 307.861 190.915 312.041 192.337C316.22 193.758 320.631 194.165 324.969 193.53C329.306 192.895 333.465 191.232 337.158 188.657C340.852 186.082 343.991 182.657 346.359 178.618C348.726 174.579 350.266 170.024 350.87 165.267C351.474 160.511 351.129 155.667 349.859 151.071C348.588 146.476 346.422 142.238 343.511 138.652V138.652Z" fill="black"/>
<path d="M321.144 160.779H321.226L322.719 254.699H319.568L321.144 160.779Z" fill="#A79CA3"/>
<path d="M326.639 211.936L325.944 210.487L320.955 213.37L321.65 214.819L326.639 211.936Z" fill="#A79CA3"/>
<path d="M113.269 375.153C113.269 375.153 113.66 366.165 121.671 367.209Z" fill="#A79CA3"/>
<path d="M111.005 366.6C113.22 366.6 115.015 364.629 115.015 362.199C115.015 359.768 113.22 357.798 111.005 357.798C108.791 357.798 106.996 359.768 106.996 362.199C106.996 364.629 108.791 366.6 111.005 366.6Z" fill="#FF1AB3"/>
<path d="M111.485 369.61H110.353V378.306H111.485V369.61Z" fill="#A79CA3"/>
<path d="M141.565 354.655C141.565 354.655 141.956 345.667 149.967 346.712Z" fill="#A79CA3"/>
<path d="M139.301 346.102C141.516 346.102 143.311 344.132 143.311 341.701C143.311 339.271 141.516 337.3 139.301 337.3C137.087 337.3 135.292 339.271 135.292 341.701C135.292 344.132 137.087 346.102 139.301 346.102Z" fill="#FF1AB3"/>
<path d="M139.781 349.112H138.649V357.808H139.781V349.112Z" fill="#A79CA3"/>
<path d="M226.859 285.115C226.859 285.115 227.169 277.977 233.532 278.806Z" fill="#A79CA3"/>
<path d="M225.061 278.322C226.82 278.322 228.245 276.757 228.245 274.827C228.245 272.896 226.82 271.331 225.061 271.331C223.302 271.331 221.876 272.896 221.876 274.827C221.876 276.757 223.302 278.322 225.061 278.322Z" fill="#FF1AB3"/>
<path d="M225.442 280.712H224.543V287.619H225.442V280.712Z" fill="#A79CA3"/>
<path d="M351.36 262.754C351.36 262.754 351.67 255.615 358.033 256.445Z" fill="#A79CA3"/>
<path d="M349.562 255.961C351.321 255.961 352.746 254.396 352.746 252.465C352.746 250.535 351.321 248.97 349.562 248.97C347.803 248.97 346.377 250.535 346.377 252.465C346.377 254.396 347.803 255.961 349.562 255.961Z" fill="#FF1AB3"/>
<path d="M349.942 258.352H349.044V265.258H349.942V258.352Z" fill="#A79CA3"/>
<path d="M232.518 303.749C232.518 303.749 232.828 296.61 239.191 297.44Z" fill="#A79CA3"/>
<path d="M230.72 296.956C232.479 296.956 233.905 295.391 233.905 293.46C233.905 291.53 232.479 289.965 230.72 289.965C228.961 289.965 227.535 291.53 227.535 293.46C227.535 295.391 228.961 296.956 230.72 296.956Z" fill="#FF1AB3"/>
<path d="M231.101 299.347H230.202V306.253H231.101V299.347Z" fill="#A79CA3"/>
<path d="M218.936 317.414C218.936 317.414 219.246 310.276 225.609 311.106Z" fill="#A79CA3"/>
<path d="M217.138 310.621C218.897 310.621 220.323 309.056 220.323 307.126C220.323 305.195 218.897 303.63 217.138 303.63C215.379 303.63 213.953 305.195 213.953 307.126C213.953 309.056 215.379 310.621 217.138 310.621Z" fill="#FF1AB3"/>
<path d="M217.519 313.012H216.62V319.919H217.519V313.012Z" fill="#A79CA3"/>
<path d="M370.601 274.556C370.601 274.556 370.911 267.417 377.274 268.247Z" fill="#A79CA3"/>
<path d="M368.803 267.762C370.562 267.762 371.987 266.197 371.987 264.267C371.987 262.336 370.562 260.771 368.803 260.771C367.044 260.771 365.618 262.336 365.618 264.267C365.618 266.197 367.044 267.762 368.803 267.762Z" fill="#FF1AB3"/>
<path d="M369.184 270.153H368.285V277.06H369.184V270.153Z" fill="#A79CA3"/>
<path d="M187.245 290.084C187.245 290.084 187.555 282.945 193.918 283.775Z" fill="#A79CA3"/>
<path d="M185.447 283.291C187.206 283.291 188.632 281.726 188.632 279.795C188.632 277.865 187.206 276.3 185.447 276.3C183.688 276.3 182.262 277.865 182.262 279.795C182.262 281.726 183.688 283.291 185.447 283.291Z" fill="#FF1AB3"/>
<path d="M185.828 285.682H184.929V292.588H185.828V285.682Z" fill="#A79CA3"/>
<path d="M334.382 254.679C334.382 254.679 334.693 247.541 341.056 248.37Z" fill="#A79CA3"/>
<path d="M332.584 247.886C334.343 247.886 335.769 246.321 335.769 244.39C335.769 242.46 334.343 240.895 332.584 240.895C330.825 240.895 329.4 242.46 329.4 244.39C329.4 246.321 330.825 247.886 332.584 247.886Z" fill="#FF1AB3"/>
<path d="M332.965 250.276H332.066V257.183H332.965V250.276Z" fill="#A79CA3"/>
<path d="M64.0347 377.016C64.0347 377.016 64.4255 368.029 72.4368 369.073Z" fill="#A79CA3"/>
<path d="M61.771 368.464C63.9855 368.464 65.7806 366.493 65.7806 364.063C65.7806 361.632 63.9855 359.662 61.771 359.662C59.5565 359.662 57.7614 361.632 57.7614 364.063C57.7614 366.493 59.5565 368.464 61.771 368.464Z" fill="#FF1AB3"/>
<path d="M62.2505 371.473H61.1187V380.169H62.2505V371.473Z" fill="#A79CA3"/>
<path d="M453.949 374.532C453.949 374.532 454.34 365.544 462.351 366.588Z" fill="#A79CA3"/>
<path d="M451.685 365.979C453.9 365.979 455.695 364.008 455.695 361.578C455.695 359.147 453.9 357.177 451.685 357.177C449.471 357.177 447.675 359.147 447.675 361.578C447.675 364.008 449.471 365.979 451.685 365.979Z" fill="#FF1AB3"/>
<path d="M452.165 368.989H451.033V377.685H452.165V368.989Z" fill="#A79CA3"/>
<path d="M421.126 353.413C421.126 353.413 421.517 344.425 429.528 345.47Z" fill="#A79CA3"/>
<path d="M418.862 344.86C421.077 344.86 422.872 342.89 422.872 340.459C422.872 338.028 421.077 336.058 418.862 336.058C416.648 336.058 414.853 338.028 414.853 340.459C414.853 342.89 416.648 344.86 418.862 344.86Z" fill="#FF1AB3"/>
<path d="M419.342 347.87H418.21V356.566H419.342V347.87Z" fill="#A79CA3"/>
<path d="M416.599 385.091C416.599 385.091 416.989 376.103 425.001 377.148Z" fill="#A79CA3"/>
<path d="M414.335 376.538C416.549 376.538 418.344 374.568 418.344 372.137C418.344 369.707 416.549 367.736 414.335 367.736C412.12 367.736 410.325 369.707 410.325 372.137C410.325 374.568 412.12 376.538 414.335 376.538Z" fill="#FF1AB3"/>
<path d="M414.814 379.548H413.682V388.244H414.814V379.548Z" fill="#A79CA3"/>
<path d="M70.5492 391.799C70.5492 391.799 248.812 340.244 247.114 287.447C244.002 272.85 222.497 269.124 222.497 269.124C222.497 269.124 171.565 261.67 199.294 243.657C227.024 225.644 302.856 229.992 302.856 229.992C302.856 229.992 224.76 243.657 259.281 251.11C287.011 252.974 322.663 261.049 322.663 261.049C322.663 261.049 395.1 277.82 405.287 318.815C415.473 359.81 406.984 391.488 406.984 391.488L70.5492 391.799Z" fill="#E6E6E6"/>
<path d="M264.708 392L264.04 390.976C264.983 390.236 265.912 389.5 266.827 388.768L267.502 389.786C266.584 390.519 265.652 391.257 264.708 392Z" fill="white"/>
<path d="M273.029 385.282L272.336 384.279C274.189 382.738 276.015 381.189 277.761 379.673L278.472 380.66C276.72 382.181 274.888 383.737 273.029 385.282ZM283.823 375.904L283.09 374.935C284.884 373.3 286.638 371.656 288.303 370.051L289.06 370.996C287.387 372.609 285.625 374.261 283.823 375.904V375.904ZM294.163 365.916L293.378 364.997C295.09 363.235 296.74 361.471 298.284 359.753L299.1 360.637C297.547 362.366 295.885 364.142 294.163 365.916V365.916ZM303.831 355.127L302.977 354.286C304.55 352.364 306.037 350.438 307.398 348.563L308.295 349.348C306.92 351.241 305.418 353.186 303.831 355.127V355.127ZM312.405 343.252L311.458 342.543C312.791 340.398 313.994 338.257 315.033 336.18L316.039 336.786C314.982 338.898 313.76 341.074 312.405 343.252ZM319 329.9L317.933 329.44C318.764 327.136 319.416 324.759 319.88 322.334L321.003 322.587C320.526 325.083 319.856 327.529 319 329.9V329.9ZM320.531 314.985C320.497 312.538 320.187 310.106 319.609 307.743L320.717 307.414C321.319 309.878 321.642 312.414 321.678 314.964L320.531 314.985ZM317.1 300.948C316.011 298.789 314.732 296.751 313.283 294.865L314.162 294.057C315.66 296.007 316.981 298.112 318.106 300.343L317.1 300.948ZM308.544 289.552C306.84 287.905 305.054 286.361 303.196 284.928L303.858 283.9C305.751 285.359 307.569 286.932 309.305 288.611L308.544 289.552ZM297.449 280.876C295.573 279.666 293.549 278.458 291.435 277.287L291.951 276.163C294.088 277.346 296.133 278.567 298.03 279.791L297.449 280.876ZM285.236 274.07C283.24 273.096 281.113 272.116 278.916 271.157L279.34 269.988C281.551 270.953 283.692 271.939 285.702 272.919L285.236 274.07ZM272.485 268.481C270.442 267.668 268.257 266.833 265.993 266L266.357 264.807C268.63 265.643 270.824 266.481 272.876 267.297L272.485 268.481ZM259.45 263.668C257.451 262.976 255.3 262.248 252.872 261.441L253.205 260.236C255.636 261.044 257.792 261.775 259.795 262.467L259.45 263.668ZM246.273 259.267C243.953 258.505 241.741 257.777 239.67 257.077L240.007 255.874C242.075 256.574 244.284 257.3 246.601 258.061L246.273 259.267ZM233.093 254.743C230.886 253.944 228.729 252.99 226.633 251.889L227.149 250.764C229.199 251.841 231.31 252.772 233.468 253.553L233.093 254.743ZM224.432 246.491L223.614 245.608C224.66 244.442 226.728 243.302 229.937 242.12L230.301 243.314C227.31 244.415 225.335 245.484 224.432 246.491L224.432 246.491ZM236.862 241.263L236.585 240.041C238.569 239.499 240.828 238.932 243.301 238.355L243.539 239.587C241.08 240.16 238.833 240.724 236.862 241.263V241.263ZM250.264 238.105L250.049 236.868C252.162 236.425 254.438 235.966 256.814 235.503L257.014 236.743C254.643 237.204 252.372 237.662 250.264 238.105V238.105ZM263.779 235.464L263.59 234.223C265.751 233.825 268.013 233.418 270.375 233.002L270.556 234.245C268.196 234.661 265.937 235.067 263.779 235.464Z" fill="white"/>
<path d="M277.472 233.05L277.296 231.806C278.411 231.617 279.545 231.426 280.7 231.233L280.872 232.477C279.718 232.67 278.585 232.861 277.472 233.05Z" fill="white"/>
<path d="M302.854 105.186L308.064 100.613C304.017 100.123 302.354 102.545 301.673 104.463C298.512 103.022 295.07 104.91 295.07 104.91L305.493 109.064C304.967 107.522 304.052 106.177 302.854 105.186V105.186Z" fill="#A79CA3"/>
<path d="M206.083 140.591L211.293 136.018C207.246 135.528 205.583 137.951 204.902 139.868C201.74 138.427 198.298 140.316 198.298 140.316L208.722 144.469C208.196 142.928 207.281 141.582 206.083 140.591V140.591Z" fill="#A79CA3"/>
<path d="M231.549 67.2966L236.759 62.7232C232.712 62.2331 231.049 64.6558 230.368 66.5733C227.207 65.1323 223.765 67.0208 223.765 67.0208L234.188 71.1742C233.662 69.6326 232.747 68.2875 231.549 67.2966Z" fill="#A79CA3"/>
<path d="M306.665 247.346C304.891 246.888 303.345 245.698 302.349 244.023C301.352 242.348 300.982 240.317 301.314 238.35C301.283 238.468 301.254 238.587 301.228 238.708C300.799 240.718 301.115 242.832 302.105 244.586C303.096 246.34 304.681 247.591 306.511 248.063C308.342 248.535 310.268 248.19 311.867 247.104C313.466 246.017 314.606 244.279 315.037 242.27C315.063 242.149 315.086 242.028 315.106 241.907C314.605 243.83 313.449 245.468 311.877 246.481C310.306 247.493 308.439 247.803 306.665 247.346V247.346Z" fill="#A79CA3"/>
<path d="M321.061 193.906C337.729 193.906 351.242 179.074 351.242 160.779C351.242 142.483 337.729 127.652 321.061 127.652C304.392 127.652 290.879 142.483 290.879 160.779C290.879 179.074 304.392 193.906 321.061 193.906Z" fill="#FF1AB3" fill-opacity="0.6"/>
</g>
<defs>
<clipPath id="clip0">
<rect width="508" height="392" fill="white"/>
</clipPath>
</defs>
</svg>
