<svg width="83" height="82" viewBox="0 0 83 82" fill="none" xmlns="http://www.w3.org/2000/svg">
<path d="M52.5892 64.18C39.5644 77.2048 27.275 74.0103 17.7233 64.4586C17.5021 64.2373 17.284 64.0129 17.0691 63.7885C16.6362 63.3364 16.2176 62.8764 15.8149 62.4132C7.80397 53.1831 5.88918 41.7054 18.0019 29.5927C30.5348 17.0598 62.3669 17.2587 64.7465 17.2922C64.7467 17.292 64.7469 17.2918 64.7472 17.2917C64.7475 17.2915 64.7478 17.2915 64.7481 17.2915C64.7484 17.2915 64.7487 17.2915 64.7489 17.2917C64.7492 17.2918 64.7495 17.2919 64.7497 17.2922C64.842 17.2922 64.8881 17.2938 64.8881 17.2938C64.8881 17.2938 65.6124 51.1568 52.5892 64.18Z" fill="url(#paint0_linear)" fill-opacity="0.9"/>
<path d="M18.9444 62.1659L34.1068 59.6543L17.9576 63.121L16.9277 64.119C16.4948 63.6669 16.0762 63.2069 15.6735 62.7437L29.3843 50.3954L29.4814 50.2888L29.51 50.2824L30.8072 49.1157L34.2819 32.9267L31.7495 48.2116L31.5044 48.4886L41.8631 39.1582L46.5808 23.5565L43.6569 37.498L64.6051 17.6227L64.6767 17.5542L64.6082 17.6227L48.424 33.6286L60.2231 32.6657L47.0153 34.9927L38.0573 43.6642L51.5771 40.2644L36.7394 44.9407L31.759 49.762L50.8768 45.3291L30.0209 51.4428L18.9444 62.1659Z" fill="#A79CA3"/>
<defs>
<linearGradient id="paint0_linear" x1="64.8881" y1="17.2938" x2="17.7233" y2="64.4586" gradientUnits="userSpaceOnUse">
<stop stop-color="#FF1AB3"/>
<stop offset="1" stop-color="#FF1AB3" stop-opacity="0"/>
</linearGradient>
</defs>
</svg>
