<?xml version="1.0" encoding="utf-8"?>
<!-- Generator: Adobe Illustrator 19.0.0, SVG Export Plug-In . SVG Version: 6.00 Build 0)  -->
<svg version="1.1" id="layer" xmlns="http://www.w3.org/2000/svg" xmlns:xlink="http://www.w3.org/1999/xlink" x="0px" y="0px"
	 viewBox="-153 -46 652 652" style="enable-background:new -153 -46 652 652;" xml:space="preserve">
<path d="M-108.7,228.9c0.6-0.9,1.3-1.8,1.9-2.7c7.3-9.6,17.1-17.6,29-22.6c0.7-0.3,1.5-0.6,2.2-0.9c0.4-0.1,0.8-0.3,1.2-0.4
	c0,0,0.1,0,0.1,0c0.5-0.2,1-0.4,1.5-0.5c0.1,0,0.2-0.1,0.3-0.1c0.2-0.1,0.5-0.2,0.8-0.2c1.7-0.6,3.4-1,5.2-1.5
	c-32.9,3.2-60.3,28.8-64.4,63c-0.1,0.7-0.2,1.5-0.2,2.2c-0.1,1.6-0.2,3.2-0.3,4.8c0,0.1,0,0.1,0,0.2c0,2.4,0.2,4.6,0.7,6.8
	c1.2,5.6,3.9,9.8,7.7,12.2c1.4,0.9,2.9,1.5,4.4,1.7c0.1,0,0.3,0,0.4,0.1c-2.1-6.7-3.1-13.6-3.2-20.3
	C-121.5,255.6-117,241.1-108.7,228.9 M-16.3,213.9c-0.6-0.4-1.2-0.9-1.8-1.3c-1.3-0.9-2.7-1.8-4-2.6c0,0-0.1-0.1-0.1-0.1
	c-2-1.2-4.1-2.1-6.2-2.8c-5.5-1.8-10.5-1.6-14.4,0.6c-1.5,0.8-2.7,1.8-3.7,2.9c-0.1,0.1-0.2,0.2-0.2,0.3c6.9,1.6,13.3,4.1,19.2,7.4
	c13,7.3,23.3,18.5,29.7,31.8c0.5,1,0.9,2,1.3,3c4.7,11.1,6.6,23.6,5.1,36.5c-0.1,0.8-0.2,1.6-0.3,2.4c-0.1,0.4-0.1,0.8-0.2,1.2
	c0,0,0,0.1,0,0.1c-0.1,0.5-0.2,1-0.3,1.6c0,0.1,0,0.2-0.1,0.3c-0.1,0.3-0.1,0.5-0.2,0.8c-0.4,1.8-0.8,3.5-1.3,5.2
	C19.8,271.1,11.2,234.6-16.3,213.9 M-13.3,312.7c-4.8,5.2-10.2,9.5-16,12.9c-12.8,7.6-27.7,10.9-42.4,9.8c-1.1-0.1-2.2-0.2-3.3-0.3
	c-12-1.5-23.8-6.1-34.1-13.8c-0.6-0.5-1.3-1-1.9-1.5c-0.3-0.3-0.6-0.5-1-0.8c0,0-0.1-0.1-0.1-0.1c-0.4-0.3-0.8-0.7-1.2-1
	c-0.1-0.1-0.2-0.2-0.3-0.2c-0.2-0.2-0.4-0.4-0.6-0.5c-1.3-1.2-2.6-2.5-3.9-3.8c19.2,26.9,55.1,37.8,86.8,24.3c0.7-0.3,1.4-0.6,2-0.9
	c1.5-0.7,2.9-1.4,4.3-2.2c0,0,0.1-0.1,0.1-0.1c2-1.2,3.9-2.5,5.5-4c4.3-3.9,6.6-8.3,6.7-12.8c0-1.7-0.2-3.2-0.7-4.6
	C-13.2,312.9-13.2,312.8-13.3,312.7 M-25.5,271.1c1.6-0.4,3.6-0.1,5.2,0.1c1.4,0.1,3,0,3.9-1.2c0.8-1.1,0.7-2.5,0.2-3.7
	c-0.3-0.7-0.5-1.3-1-1.9c-7.5-9.5-15.1-13.7-19-16.2c-9.9-6.2-23.2-12.6-34.3-16.2c-0.8-0.3-2.8-0.9-4.5-1.5
	c-0.5-0.1-0.9-0.3-1.3-0.4c0,0-0.1,0-0.1,0c-0.9-0.2-1.6-0.2-1.7,0.4c-0.1,0.7,1.3,1.6,2.3,2.2l0.3,1.2c5.9,4.8,16.4,13.1,18.9,16.3
	c0.3,0.4,0.5,0.7,0.8,1.1c0.3,0.5,0.3,0.6-0.3,0.8c-0.5,0.2-1,0.5-1.5,0.7c-1.7,0.8-4,2-5.7,2.7c-1.7,0.7-3,0.6-4.7,0.1
	c-0.5-0.1-4.9-1.6-10.3-3.5c-0.3-0.1-0.5-0.2-0.8-0.3c-0.7-0.2-1.4-0.5-2.1-0.7c-1-0.3-2-0.7-3-1c-1.2-0.4-2.3-0.8-3.5-1.2
	c-1.2-0.4-2.3-0.8-3.5-1.2c-1-0.3-2.1-0.7-3.1-1c-0.7-0.2-1.5-0.5-2.2-0.7c-0.1,0-0.2-0.1-0.2-0.1c-0.1,0-0.1,0-0.2-0.1
	c-0.1,0-0.2-0.1-0.4-0.1c-0.3,0-0.6,0.1-0.8,0.2c-0.1,0-0.1,0.1-0.2,0.1c-0.1,0.1-0.2,0.1-0.3,0.2c0,0-0.1,0-0.1,0.1l-1.7,1.4
	c-0.1,0-0.1,0.1-0.2,0.1l-0.9,0.7c-0.1,0.1-0.1,0.1-0.2,0.2c-0.1,0.1-0.1,0.2-0.2,0.2c-0.3,0.4-0.5,0.9-0.5,1.4c0,0.5,0.2,1,0.5,1.4
	c0,0,0.1,0.1,0.1,0.1c0,0,0,0,0,0c0,0,0.1,0.1,0.1,0.1c0,0,0,0,0,0c0.1,0.1,0.2,0.1,0.2,0.2l19.6,14c0.5,0.4,1,0.7,1.5,1.1
	c3.3,2.4,5.6,4.4,5.7,5.5c0,0.3,0.3,8.7,0.3,8.9c0,0.2,0,0.4,0,0.6c0,0.1,0,0.2,0,0.3c0,0,0,0,0,0c-0.1,0.4-0.4,0.6-0.7,0.8
	c-0.4,0.1-0.8,0.2-1.2,0.2c-3.5-0.2-6.9-1-10.2-2.1c-1.3-0.4-2.5-0.9-3.8-1.4c-4.2-1.7-8.2-3.7-12.4-5.4c-1.3-0.5-2.6-1.1-3.9-1.6
	c-0.2-0.1-0.4-0.2-0.6-0.3c-0.4-0.2-0.8-0.4-1.2-0.5c0,0,0,0,0,0c-0.1-0.1-0.3-0.1-0.4-0.2c-0.6-0.2-1,0-1.2,0.4
	c-1.6-1-0.1,2.1,2.2,4.6c0,0,3.2,3.3,4.5,4.7c9.6,10.1,21.1,17.6,34.2,22.5c3.6,1.4,7.3,2.5,11.1,3.3c5.8,1.2,10.2,1.8,16,0.6
	c3.7-0.7,8.8-2.5,8.1-7.2c0-0.1,0-0.2-0.1-0.3c-0.4-1.7-1.6-1.8-2.6-3.1c-0.9-1.1-1.5-3.9-1.7-5.3c3.1-0.7,13.1-1.6,14.4-1.5
	c0.8,0,3.3,1,3.9,1.3c0.1,0,0.3,0.1,0.4,0.1v-1.8c0.8,0,1.6,0.2,2.4,0.5l0.4,0.2c0,0,0,0,0,0c0.5-1.7-0.2-3.3-1.1-4.3
	c0-0.3,0-0.6,0-0.9c-0.2-1.5-0.8-3.1-1.8-4.2c-1-1.2-2.2-2.1-3.3-3.1c-0.6-0.5-1.3-1-1.8-1.6c-1.2-1.1-2.6-2.1-3.9-3.2
	C-28.3,272.5-27.7,271.7-25.5,271.1"/>
<path d="M57.2,274.5l-13.2-21h-5.1V283H44v-20.9L57.1,283h5.1v-29.5h-5.1V274.5 M79.7,276.8c-0.4,0.8-1.1,1.4-1.9,1.9
	c-0.9,0.5-1.8,0.7-2.7,0.7c-1.1,0-1.9-0.3-2.5-0.8c-0.6-0.6-0.9-1.3-0.9-2.3c0-1.2,0.5-2.1,1.4-2.7c0.9-0.6,2.3-1,4.1-1h2.7V276.8z
	 M84.6,268c0-2.3-0.8-4.2-2.4-5.4c-1.5-1.3-3.6-1.9-6.1-1.9c-1.7,0-3.2,0.3-4.6,0.9c-1.4,0.6-2.5,1.4-3.3,2.5
	c-0.8,1-1.2,2.2-1.2,3.4H72c0-0.9,0.4-1.6,1.1-2.1c0.7-0.6,1.6-0.8,2.8-0.8c1.3,0,2.3,0.3,2.9,1c0.6,0.7,1,1.6,1,2.7v1.4h-3
	c-3.2,0-5.7,0.6-7.4,1.9c-1.7,1.3-2.6,3-2.6,5.4c0,1.8,0.7,3.4,2.1,4.7c1.4,1.3,3.2,1.9,5.4,1.9c2.3,0,4.2-0.8,5.8-2.5
	c0.2,0.9,0.4,1.6,0.6,2h5v-0.3c-0.6-1.2-0.8-2.8-0.8-4.7V268z M96.6,278.8c-0.3-0.4-0.5-1-0.5-1.8v-12.2h3.9v-3.6h-3.9v-5.3h-4.9
	v5.3h-3.6v3.6h3.6v12.4c0,4.2,1.9,6.3,5.7,6.3c1,0,2.1-0.2,3.2-0.5v-3.8c-0.6,0.1-1.2,0.2-1.7,0.2C97.5,279.3,96.9,279.1,96.6,278.8
	 M117.6,276.8c-0.8,1.7-2.5,2.6-4.8,2.6c-2.3,0-3.5-1.4-3.5-4.2v-14.1h-4.9v14.2c0,2.6,0.6,4.6,1.8,6c1.2,1.4,3,2.1,5.4,2.1
	c2.7,0,4.7-0.9,6.2-2.6l0.1,2.2h4.6v-21.9h-4.9V276.8 M132.3,263.5l-0.1-2.5h-4.7V283h4.9v-15c0.8-1.7,2.3-2.6,4.6-2.6
	c0.7,0,1.4,0.1,2,0.2l0-4.6c-0.5-0.2-1-0.3-1.7-0.3C135.2,260.7,133.5,261.6,132.3,263.5 M155.7,271.7c-1.1-0.6-2.6-1.1-4.6-1.5
	c-1.9-0.4-3.2-0.8-3.9-1.3c-0.6-0.4-1-1-1-1.8c0-0.8,0.3-1.5,1-2c0.7-0.5,1.6-0.8,2.6-0.8c1.2,0,2.1,0.3,2.8,0.9
	c0.7,0.6,1.1,1.4,1.1,2.4h4.9c0-2.1-0.8-3.7-2.4-5c-1.6-1.3-3.7-1.9-6.4-1.9c-2.5,0-4.5,0.6-6.1,1.9c-1.6,1.3-2.4,2.9-2.4,4.7
	c0,2.3,1.2,4,3.7,5.2c1.1,0.5,2.5,1,4.2,1.3c1.7,0.4,2.9,0.8,3.6,1.2c0.7,0.5,1.1,1.1,1.1,2c0,0.8-0.3,1.4-1,1.9
	c-0.7,0.5-1.7,0.7-3,0.7c-1.3,0-2.4-0.3-3.2-0.9c-0.8-0.6-1.3-1.5-1.3-2.7h-4.8c0,1.3,0.4,2.5,1.2,3.7c0.8,1.1,1.9,2,3.3,2.7
	c1.4,0.6,3,1,4.8,1c2.6,0,4.8-0.6,6.4-1.8c1.6-1.2,2.5-2.8,2.5-4.8c0-1.2-0.3-2.2-0.8-3C157.6,272.9,156.8,272.2,155.7,271.7
	 M181.5,261.1h-5.9l-6.1,6.8l-1.5,1.9v-18H163V283h4.9v-7.2l2.2-2.3l6.5,9.4h5.7l-9-12.8L181.5,261.1 M193.1,275.9l-4.6-14.9h-5.3
	l7.7,21.8l-0.7,1.9c-0.4,1.1-0.9,1.8-1.5,2.3c-0.6,0.5-1.6,0.7-2.8,0.7l-0.9-0.1v3.8c0.9,0.2,1.7,0.4,2.4,0.4c3.2,0,5.5-1.8,6.8-5.5
	l8.7-25.3h-5.2L193.1,275.9 M218.4,276.7c-0.9,1.8-2.4,2.7-4.4,2.7c-1.6,0-2.8-0.6-3.7-1.9c-0.9-1.3-1.3-3-1.3-5.2
	c0-2.5,0.4-4.4,1.3-5.7c0.9-1.3,2.1-1.9,3.7-1.9c2,0,3.5,0.9,4.4,2.6V276.7z M218.4,263.1c-1.4-1.6-3.3-2.4-5.6-2.4
	c-2.6,0-4.7,1-6.3,3.1c-1.6,2-2.4,4.8-2.4,8.1c0,3.6,0.8,6.4,2.4,8.4c1.6,2.1,3.7,3.1,6.2,3.1c2.5,0,4.4-0.9,5.9-2.7l0.2,2.3h4.5
	v-31.1h-4.9V263.1z M242,276.7c-0.9,1.8-2.4,2.7-4.4,2.7c-1.6,0-2.8-0.6-3.7-1.9c-0.9-1.3-1.3-3-1.3-5.2c0-2.5,0.4-4.4,1.3-5.7
	c0.9-1.3,2.1-1.9,3.7-1.9c2,0,3.5,0.9,4.4,2.6V276.7z M242,263.1c-1.4-1.6-3.3-2.4-5.6-2.4c-2.6,0-4.7,1-6.3,3.1
	c-1.6,2-2.4,4.8-2.4,8.1c0,3.6,0.8,6.4,2.4,8.4c1.6,2.1,3.7,3.1,6.2,3.1c2.5,0,4.4-0.9,5.9-2.7l0.2,2.3h4.5v-31.1H242V263.1z
	 M265.8,271.7c-1.1-0.6-2.6-1.1-4.5-1.5c-1.9-0.4-3.2-0.8-3.9-1.3c-0.6-0.4-1-1-1-1.8c0-0.8,0.3-1.5,1-2c0.7-0.5,1.6-0.8,2.6-0.8
	c1.2,0,2.1,0.3,2.8,0.9c0.7,0.6,1.1,1.4,1.1,2.4h4.9c0-2.1-0.8-3.7-2.4-5c-1.6-1.3-3.7-1.9-6.4-1.9c-2.5,0-4.5,0.6-6.1,1.9
	c-1.6,1.3-2.4,2.9-2.4,4.7c0,2.3,1.2,4,3.7,5.2c1.1,0.5,2.5,1,4.2,1.3s2.9,0.8,3.6,1.2c0.7,0.5,1.1,1.1,1.1,2c0,0.8-0.3,1.4-1,1.9
	c-0.7,0.5-1.7,0.7-3,0.7c-1.3,0-2.4-0.3-3.2-0.9c-0.8-0.6-1.3-1.5-1.3-2.7h-4.8c0,1.3,0.4,2.5,1.2,3.7c0.8,1.1,1.9,2,3.3,2.7
	c1.4,0.6,3,1,4.8,1c2.6,0,4.8-0.6,6.4-1.8c1.6-1.2,2.5-2.8,2.5-4.8c0-1.2-0.3-2.2-0.8-3C267.7,272.9,266.9,272.2,265.8,271.7
	 M277.1,253.4c-1.4,1.3-2,3.2-2,5.6v2h-3.3v3.6h3.3V283h4.9v-18.3h4.5v-3.6H280v-1.9c0-2.4,1.2-3.6,3.5-3.6c0.7,0,1.3,0.1,1.9,0.2
	l0.1-3.9c-1-0.2-1.9-0.4-2.8-0.4C280.3,251.4,278.4,252.1,277.1,253.4 M292.5,257.7c0.8,0,1.4-0.2,1.9-0.7c0.5-0.5,0.7-1,0.7-1.7
	c0-0.7-0.2-1.2-0.7-1.7c-0.5-0.5-1.1-0.7-1.9-0.7c-0.8,0-1.4,0.2-1.9,0.7c-0.5,0.5-0.7,1-0.7,1.7c0,0.7,0.2,1.2,0.7,1.7
	C291.1,257.5,291.7,257.7,292.5,257.7 M301.2,277.5c-0.9,1.3-2.2,1.9-3.9,1.9c-1.7,0-3-0.6-3.9-1.9c-0.9-1.3-1.4-3-1.4-5.3
	c0-2.5,0.5-4.4,1.4-5.7c0.9-1.3,2.2-1.9,3.8-1.9c1.6,0,2.9,0.6,3.9,1.9c1,1.3,1.4,3.1,1.4,5.3C302.6,274.3,302.1,276.2,301.2,277.5z
	 M304.5,263.5c-1.8-1.9-4.2-2.9-7.2-2.9c-2,0-3.8,0.5-5.3,1.4c-1.5,0.9-2.7,2.3-3.6,4c-0.9,1.7-1.3,3.7-1.3,5.8v0.2
	c0,3.4,0.9,6.2,2.8,8.2c1.9,2.1,4.3,3.1,7.4,3.1c2,0,3.8-0.5,5.4-1.4c1.5-0.9,2.7-2.2,3.6-4c0.8-1.7,1.2-3.6,1.2-5.8l0-1.2
	C307.3,267.9,306.3,265.4,304.5,263.5z M301.8,257.7c0.8,0,1.4-0.2,1.9-0.7c0.5-0.5,0.7-1,0.7-1.7c0-0.7-0.2-1.2-0.7-1.7
	c-0.5-0.5-1.1-0.7-1.9-0.7c-0.8,0-1.4,0.2-1.9,0.7c-0.5,0.5-0.7,1-0.7,1.7c0,0.7,0.2,1.2,0.7,1.7C300.4,257.5,301,257.7,301.8,257.7
	 M316.3,263.5l-0.1-2.5h-4.7V283h4.9v-15c0.8-1.7,2.3-2.6,4.6-2.6c0.7,0,1.4,0.1,2,0.2l0-4.6c-0.5-0.2-1-0.3-1.7-0.3
	C319.1,260.7,317.5,261.6,316.3,263.5 M339.5,270h-9.4c0.2-1.7,0.8-3,1.6-4c0.8-0.9,1.9-1.4,3.3-1.4c1.4,0,2.4,0.4,3.2,1.3
	c0.8,0.8,1.2,2.1,1.3,3.7V270z M335,260.7c-1.9,0-3.6,0.5-5.1,1.4c-1.5,1-2.7,2.3-3.6,4c-0.8,1.7-1.3,3.7-1.3,5.9v0.6
	c0,3.3,1,5.9,2.9,7.9c1.9,2,4.5,2.9,7.6,2.9c1.8,0,3.5-0.4,4.9-1.1c1.5-0.7,2.6-1.7,3.5-3.1l-2.7-2.5c-1.4,1.8-3.3,2.7-5.5,2.7
	c-1.6,0-2.9-0.5-4-1.6c-1.1-1.1-1.7-2.5-1.8-4.3h14.3v-2c0-3.5-0.8-6.2-2.4-8.1C340.3,261.6,337.9,260.7,335,260.7z M359.4,260.7
	c-2.6,0-4.8,1-6.4,2.9l-0.1-2.5h-4.6V283h4.9v-15.6c1-1.8,2.5-2.7,4.4-2.7c1.4,0,2.3,0.3,2.9,1c0.6,0.7,0.9,1.7,0.9,3.1V283h4.9
	v-14.5C366.3,263.3,364,260.7,359.4,260.7 M374.2,252.7c-0.9,0-1.6,0.3-2.1,0.8c-0.5,0.5-0.7,1.1-0.7,1.9c0,0.8,0.2,1.4,0.7,1.9
	c0.5,0.5,1.2,0.7,2.1,0.7c0.9,0,1.6-0.2,2.1-0.7c0.5-0.5,0.7-1.1,0.7-1.9c0-0.8-0.2-1.4-0.7-1.9
	C375.8,252.9,375.1,252.7,374.2,252.7 M371.7,283h4.9v-21.9h-4.9V283z M393.3,260.7c-2.6,0-4.8,1-6.4,2.9l-0.1-2.5h-4.6V283h4.9
	v-15.6c1-1.8,2.5-2.7,4.4-2.7c1.4,0,2.3,0.3,3,1c0.6,0.7,0.9,1.7,0.9,3.1V283h4.9v-14.5C400.2,263.3,397.9,260.7,393.3,260.7
	 M418.5,276.8c-1,1.7-2.4,2.6-4.4,2.6c-1.6,0-2.8-0.6-3.7-1.9c-0.9-1.3-1.4-3-1.4-5.2c0-2.5,0.5-4.4,1.4-5.7
	c0.9-1.3,2.2-1.9,3.8-1.9c2,0,3.4,0.8,4.4,2.5V276.8z M418.7,263.3c-1.4-1.7-3.4-2.6-5.9-2.6c-2.6,0-4.8,1-6.4,3.1
	c-1.6,2-2.4,4.8-2.4,8.2c0,3.6,0.8,6.4,2.4,8.5c1.6,2,3.7,3.1,6.3,3.1c2.4,0,4.3-0.8,5.7-2.4v1.5c0,1.7-0.5,3-1.4,3.9
	c-0.9,0.9-2.2,1.3-3.9,1.3c-2.2,0-4.1-0.9-5.6-2.7l-2.3,3c0.8,1.1,2,2,3.5,2.6c1.5,0.7,3.1,1,4.7,1c3,0,5.5-0.8,7.2-2.5
	c1.8-1.7,2.7-3.9,2.7-6.8v-21.3H419L418.7,263.3z M441.9,270h-9.4c0.2-1.7,0.8-3,1.6-4c0.8-0.9,1.9-1.4,3.3-1.4
	c1.4,0,2.4,0.4,3.2,1.3s1.2,2.1,1.3,3.7V270z M437.4,260.7c-1.9,0-3.6,0.5-5.1,1.4c-1.5,1-2.7,2.3-3.6,4c-0.8,1.7-1.3,3.7-1.3,5.9
	v0.6c0,3.3,1,5.9,2.9,7.9c1.9,2,4.5,2.9,7.6,2.9c1.8,0,3.5-0.4,4.9-1.1c1.5-0.7,2.6-1.7,3.5-3.1l-2.7-2.5c-1.4,1.8-3.3,2.7-5.5,2.7
	c-1.6,0-2.9-0.5-4-1.6c-1.1-1.1-1.7-2.5-1.8-4.3h14.3v-2c0-3.5-0.8-6.2-2.4-8.1C442.7,261.6,440.4,260.7,437.4,260.7z M461.7,260.7
	c-2.6,0-4.8,1-6.4,2.9l-0.1-2.5h-4.6V283h4.9v-15.6c1-1.8,2.5-2.7,4.4-2.7c1.4,0,2.3,0.3,2.9,1c0.6,0.7,0.9,1.7,0.9,3.1V283h4.9
	v-14.5C468.5,263.3,466.2,260.7,461.7,260.7"/>
</svg>
