<svg width="35" height="50" viewBox="0 0 35 50" fill="none" xmlns="http://www.w3.org/2000/svg">
<path d="M10.9373 35V32.5H2.18733L2.18733 35C2.18733 37.7617 4.14583 40 6.56233 40C8.97883 40 10.9373 37.7617 10.9373 35ZM28.4373 50C30.8538 50 32.8123 47.7617 32.8123 45V42.5H24.0623V45C24.0623 47.7617 26.0208 50 28.4373 50ZM19.6873 23.6359C19.6873 26.3633 20.5842 29.5859 21.8748 31.818C22.9945 33.7547 24.0623 35.2961 24.0623 40H32.8123L33.904 35.5055C34.4016 33.4578 34.8008 31.3641 34.9328 29.2313C35.0907 26.6773 34.9786 24.1063 34.509 21.6078C32.9011 13.0547 29.341 10 26.2498 10C21.8748 10 19.6873 16.5766 19.6873 23.6359ZM0.49134 11.6078C0.021712 14.1063 -0.0910808 16.6773 0.0675127 19.2313C0.199446 21.3641 0.598664 23.4578 1.09564 25.5055L2.18733 30L10.9373 30C10.9373 25.2969 12.0051 23.7547 13.1248 21.818C14.4154 19.5859 15.3123 16.3633 15.3123 13.6359C15.3123 6.57656 13.1248 0 8.74982 0C5.65862 0 2.09847 3.05469 0.49134 11.6078Z" fill="#FF4AC1"/>
</svg>
