<svg width="272" height="389" viewBox="0 0 272 389" fill="none" xmlns="http://www.w3.org/2000/svg">
<path d="M84.9986 272.3C84.9986 261.558 76.2905 252.85 65.5486 252.85L36.4487 252.85C25.7068 252.85 16.9987 261.558 16.9987 272.3C16.9987 293.786 32.219 311.2 50.9986 311.2C69.7783 311.2 84.9986 293.786 84.9986 272.3ZM220.998 389C239.778 389 254.998 371.586 254.998 350.1C254.998 339.358 246.29 330.65 235.548 330.65H206.448C195.706 330.65 186.998 339.358 186.998 350.1C186.998 371.586 202.219 389 220.998 389ZM152.998 183.888C152.998 205.106 159.968 230.179 169.998 247.544C174.685 255.658 179.254 262.881 182.473 273.534C188.554 293.659 204.041 311.2 225.064 311.2C242.63 311.2 257.915 299.18 262.056 282.11L263.482 276.233C267.35 260.302 270.452 244.012 271.478 227.419C272.705 207.55 271.834 187.547 268.184 168.109C255.689 101.565 228.021 77.8 203.998 77.8C169.998 77.8 152.998 128.966 152.998 183.888ZM3.81841 90.3088C0.168733 109.747 -0.707828 129.75 0.52467 149.619C1.54998 166.212 4.65248 182.502 8.51466 198.433L9.94062 204.31C14.0824 221.38 29.3672 233.4 46.933 233.4C67.956 233.4 83.4438 215.859 89.5248 195.734C92.7439 185.081 97.3127 177.858 101.999 169.744C112.029 152.379 118.999 127.306 118.999 106.088C118.999 51.1657 101.999 0 67.9986 0C43.9755 0 16.3081 23.7655 3.81841 90.3088Z" fill="#FF4AC1" fill-opacity="0.20"/>
</svg>
