<?xml version="1.0" encoding="utf-8"?>
<!-- Generator: Adobe Illustrator 14.0.0, SVG Export Plug-In . SVG Version: 6.00 Build 43363)  -->
<!DOCTYPE svg PUBLIC "-//W3C//DTD SVG 1.1//EN" "http://www.w3.org/Graphics/SVG/1.1/DTD/svg11.dtd">
<svg version="1.1" id="wwf" xmlns:svg="http://www.w3.org/2000/svg"
	 xmlns="http://www.w3.org/2000/svg" xmlns:xlink="http://www.w3.org/1999/xlink" x="0px" y="0px" width="400px" height="300px"
	 viewBox="0 0 400 300" enable-background="new 0 0 400 300" xml:space="preserve">
<path d="M271.241,44.974c-4.209-4.534-12.023-5.894-16.665-3.646c-4.639,2.247-9.032,11.024-9.658,15.181
	c-0.133,0.883-0.043,1.622,0.165,2.249c0.776,2.321,3.313,3.016,3.313,3.016c5.869,2.768,7.851,5.427,10.884,8.854
	c2.895,3.272,5.674,3.565,7.535,3.057c0.087-0.024,0.176-0.047,0.259-0.075c0,0,6.082-3.704,7.698-5.805l-0.06-0.01
	c0,0,3.392-2.711,4.158-8.153C279.64,54.201,275.451,49.506,271.241,44.974z"/>
<path d="M273.802,94.141c0,0,1.938,22.621-12.117,34.738c-14.058,12.117-22.14,10.343-22.14,10.343s-6.777-0.49-9.523,2.901
	c-2.746,3.393-2.27,5.82-8.083,4.043c-5.817-1.776-5.842-3.228-11.173-2.58c-5.331,0.646-8.543,1.287-10.645-3.075
	c-2.101-4.362-4.447-7.174-8.811-7.981c-4.363-0.809-23.531-9.928-23.013-35.638c0.483-23.913,11.31-32.158,11.31-32.158
	s1.782-1.937,3.56-1.128c1.777,0.808,4.682,0.973,8.074-2.096c3.394-3.07,5.656-5.501,11.794-7.603c0,0,2.389-0.37,3.495-2.351
	c0.361-0.647,0.587-1.464,0.548-2.498c-0.161-4.201-3.562-13.401-7.925-16.148c-1.908-1.203-4.5-1.792-7.2-1.729
	c-3.473,0.08-7.131,1.229-9.767,3.501c-4.686,4.04-9.365,8.235-9.203,13.73c0.102,3.459,1.354,5.958,2.267,7.335
	c0.537,0.81,0.958,1.234,0.958,1.234s2.102,1.609,0,3.226c-2.1,1.615-26.978,17.454-25.685,50.091c0,0,0.647,8.493-0.323,17.542
	c-0.695,6.5,1.588,14.381,2.938,18.326c0.034,0.037,0.663,1.66-0.761,0.714c-6.743-4.216-12.25-10.55-16.862-18.417
	c-4.231-7.688-6.646-16.569-6.646-26.019c0-20.073,10.898-37.556,26.952-46.555c-0.35,0.096-0.693,0.207-1.04,0.311
	c-21.493,6.428-37.223,26.778-37.223,50.884c0,1.875,0.092,3.729,0.276,5.553c0.181,4.225,0.646,10.964,1.831,13.661
	c1.778,4.039,1.613,12.758,1.613,14.212s0.485,49.273,28.761,49.113c0,0,13.476,0.334,13.567-5.16
	c0.081-4.848-1.302-5.356-2.581-8.166c-1.211-2.665-2.097-2.828-1.451-11.391c0,0,0.033-1.733,0.681-1.775
	c0.646-0.04,8.525,23.427,18.704,35.708c10.18,12.278,20.359,13.567,28.114,13.567c0,0,14.536,0.004,14.536-7.269
	s-6.623-4.366-6.623-27.472c0-23.104,11.146-21.963,12.44-16.31c1.292,5.654,2.424,10.177,0.161,25.363
	c-2.264,15.188,3.881,16.966,9.536,16.966s35.386,0.962,40.557-84.023c0,0,0.625-13.432-3.74-25.14
	C273.894,94.396,273.85,94.268,273.802,94.141z M205.592,147.373c0.228-0.368,0.582-0.535,1.023-0.553
	c0.978-0.035,2.385,0.609,3.87,1.176c2.163,0.821,7.108,0.434,9.043,0.299c1.936-0.135,3.231,0.688,1.683,2.522
	c-2.137,2.53-4.689,2.438-7.913,2.66c-3.225,0.222-6.683-2.938-6.683-2.938C206.433,150.23,204.865,148.558,205.592,147.373z"/>
<path d="M199.156,90.101c-3.229,0-5.313,0.589-9.047,5.17c-6.528,8.008-9.048,16.157-2.262,22.296
	c6.786,6.141,13.557-3.492,17.313-7.892c5.238-6.13,4.499-6.973,3.045-12.466C206.871,92.172,202.386,90.101,199.156,90.101z"/>
<path d="M246.266,125.774c8.314-3.821,8.355-12.351,4.531-21.949c-2.188-5.49-3.999-6.677-7.081-7.646
	c-3.083-0.97-7.979-0.337-10.764,4.067c-3.035,4.804-4.086,5.258-0.931,12.678C234.289,118.248,237.952,129.595,246.266,125.774z"/>
<path d="M203.96,131.461c0,0-0.521,2.587,2.469,3.232c2.276,0.492,6.05,2.156,7.275,5.109c0.241,0.716,0.923,0.73,1.299,0.08
	c1.729-2.706,5.76-3.625,8.096-3.698c3.058-0.094,3.013-2.731,3.013-2.731s0.217-2.691-10.822-3.765
	C204.26,128.617,203.96,131.461,203.96,131.461z"/>
<path id="w_1_" d="M174.067,228.523c-1.829,0-2.971,2.003-2.971,2.003l-8.299,18.919c0,0-3.593-13.844-5.067-17.773
	c-1.253-3.342-3.256-3.148-3.256-3.148s-2.799,0.067-7.826,0c-4.169-0.057-1.791,12.028-1.791,12.028l-5.831,8.629
	c0,0-4.071-16.332-5.059-18.882c-0.841-2.161-2.972-1.775-2.972-1.775h-8.227c-4.798,0-2.513,6.348-2.513,6.348
	s11.538,33.016,12.452,34.729s1.6,2.513,3.428,2.513c1.543,0,2.285-1.711,2.285-1.711l9.825-22.279c0,0,6.513,17.595,7.54,20.223
	c1.028,2.627,1.828,3.77,3.771,3.77c1.941,0,2.855-2.168,2.855-2.168s13.741-36.129,14.396-38.502
	C177.238,229.884,176.01,228.523,174.067,228.523z"/>
<path id="w" d="M234.816,228.523c-1.829,0-2.972,2.003-2.972,2.003l-8.299,18.919c0,0-3.592-13.844-5.067-17.773
	c-1.253-3.342-3.255-3.148-3.255-3.148s-2.8,0.067-7.826,0c-4.169-0.057-1.791,12.028-1.791,12.028l-5.83,8.629
	c0,0-4.071-16.332-5.06-18.882c-0.841-2.161-2.972-1.775-2.972-1.775h-8.226c-4.798,0-2.514,6.348-2.514,6.348
	s11.538,33.016,12.452,34.729s1.601,2.513,3.428,2.513c1.543,0,2.285-1.711,2.285-1.711l9.825-22.279c0,0,6.512,17.595,7.538,20.223
	c1.031,2.627,1.829,3.77,3.772,3.77c1.941,0,2.855-2.168,2.855-2.168s13.74-36.129,14.396-38.502
	C237.988,229.884,236.76,228.523,234.816,228.523z"/>
<path id="f" d="M273.155,228.485c0,0-23.589,0-27.628,0c-4.038,0-4.038,2.747-4.038,2.747s0,32.234,0,36.678
	c0,4.442,2.827,4.203,2.827,4.203c0-0.084,6.82,0,8.437,0c2.343,0,2.146-3.613,2.146-3.613v-17.637h13.327
	c0,0,2.864-0.162,2.864-2.828s-3.43-2.666-3.43-2.666h-12.683c0,0,0-7.188,0-9.047c0-1.856,1.938-1.856,1.938-1.856h16.48
	c0,0,3.104,0.323,3.104-2.908C276.503,228.324,273.155,228.485,273.155,228.485z"/>
</svg>
